<?xml version="1.0" encoding="UTF-8"?>
<svg id="Layer_2" data-name="Layer 2" xmlns="http://www.w3.org/2000/svg" viewBox="0 0 949.3 715.51">
  <defs>
    <style>
      .cls-1 {
        fill: #6ee154;
        stroke-width: 0px;
      }
    </style>
  </defs>
  <g id="Layer_2-2" data-name="Layer 2">
    <g id="Layer_1-2" data-name="Layer 1-2">
      <path class="cls-1" d="M422.1,299.42c2.41-.62,4.89-.76,7.5-.79,126.01.13,252.18.04,378.21.39,6.57.14,13.07,1.31,19.11,3.94,29.61,12,42.14,39.33,34.71,70-3.95,15.48-13.85,29.08-25.9,39.39-73.91,58.92-147.82,117.98-222.89,175.41-1.58,1.25-5.03,4.11-4.41,5.47.27.89,1.79,1.33,4.09,1.47,48.63-.91,97.39-.86,146.02-1.12,6.54-.27,6.67-2.89,3.06-7.71-13.96-18.27-28.59-36.04-42.4-54.41-4.66-7.07-.28-11.28,5.35-15.49,22.88-17.61,45.59-35.44,68.46-53.19,7.83-6.12,15.67-12.23,23.49-18.31,4.89-3.91,9.54-5.58,14.5-.04,30.45,38.5,60.6,77.26,90.88,115.87,5.76,7.86,11.86,15.68,16.64,24.26,32.04,57.2-11.36,131.9-77.46,130.58-150.47.12-301.04.15-451.47,0-14.22-.36-21.03-.34-32.65-8.79-5.68-3.88-11.37-8.14-15.62-13.64-11.77-15.64-13.59-37.5-7.59-55.81,8.49-25.88,32.09-41.59,52.49-57.65,62.02-48.34,123.52-97.38,185.87-145.31,1.6-1.38,5.67-4.06,4.64-5.74-.53-.77-2.38-1.09-4.92-1.18-85.78-.29-171.47-.07-257.23-.36-7.07-.34-9.69-3.53-5.91-10.27,4.47-7.57,10.46-14.26,15.7-21.35,21.93-28.24,42.58-57.49,64.15-86,3.57-4.31,7.9-8.42,13.5-9.59l.08-.02h0Z"/>
      <path class="cls-1" d="M479.93.03c8.51-.13,16.89.1,25.04,2.37,25.03,5.2,46.82,22.5,61.7,42.97,35.62,50.5,70.4,101.51,105.77,152.17,17.1,24.78,34.36,49.46,51.5,74.22,1.23,1.75,2.76,4.19,3.11,5.9.67,3-1.88,4.1-4.99,4.38-3.41.32-7.01.16-10.48.2-50.12-.33-100.5.64-150.59-.36-5.64-.62-8.71-4.74-11.74-9.25-21.38-30.98-42.42-62.16-63.63-93.25-.98-1.41-2.16-3.01-3.28-4.01-4.23-3.91-7.49,0-10.31,3.88-56.9,79.86-113.45,159.93-170.38,239.77-3.8,4.9-8.15,9.16-11.89,14.09-2.94,3.88-5.62,7.99-8.44,11.95-33.67,47.92-67.38,95.88-101.06,143.78-4.07,5.95-3.44,8.61,5.37,8.45,54.69.08,109.72-.14,165.83.08,2.33.13,4.11.53,4.86,1.35.89.93.39,2.45-1.02,4.38-.95,1.31-2.28,2.8-3.54,4.3-24.12,27.4-22.79,71.46,3.06,97.28,1.74,2.07,9.05,7.63,5.61,9.69-1.08.67-3.2.95-5.66,1.04-90.1.1-180.15.06-270.2.01-6.68-.15-12.21-1.8-18.45-3.72-12.93-3.37-25.22-8.8-35.47-17.46-29.98-23.82-39.02-67.63-22.4-101.91,6.76-14.43,16.59-26.87,25.58-39.89,23.18-33.02,46.62-66.26,69.8-99.33C197.09,319.12,292.04,186.18,389.07,54.69,411.15,21.8,438.84.02,479.92.03h0Z"/>
    </g>
  </g>
</svg>